<?xml version="1.0" encoding="UTF-8" standalone="no"?>
<!-- Created with Inkscape (http://www.inkscape.org/) -->

<svg
   width="512"
   height="512"
   viewBox="0 0 512 512"
   version="1.1"
   id="svg1"
   xml:space="preserve"
   xmlns="http://www.w3.org/2000/svg"
   xmlns:svg="http://www.w3.org/2000/svg"><defs
     id="defs1" /><g
     id="layer1"><path
       id="path1"
       class="st0"
       d="m 256.00633,-4.2964324e-4 c -74.155,0 -134.25248,60.10874264324 -134.25248,134.24273964324 v 32.15868 c 0,74.133 60.09848,134.23949 134.25248,134.23949 74.144,0 134.22976,-60.10874 134.22976,-134.24274 V 134.24231 C 390.23609,60.109313 330.15033,-4.2964324e-4 256.00633,-4.2964324e-4 Z M 154.23707,310.7856 c -50.474,21.667 -81.477464,59.78284 -100.396464,93.43184 -25.109,44.632 -5.424607,107.78299 38.000393,107.78299 H 256.00633 420.15869 c 43.424,0 63.11039,-63.15099 38.00039,-107.78299 -18.93,-33.65 -49.93444,-71.76484 -100.40944,-93.43184 -28.868,20.196 -63.93631,32.08728 -101.74331,32.08728 -37.828,0 -72.90026,-11.89028 -101.76926,-32.08728 z"
       style="display:none"
       transform="matrix(0.60181326,0,0,0.60181326,101.9359,101.93581)" /><path
       id="path1-6"
       style="display:inline;fill:#000000;fill-opacity:1"
       d="M 99.189,-23.275934 A 122.46507,122.46507 0 0 0 -23.275804,99.18887 122.46507,122.46507 0 0 0 99.189,221.65367 122.46507,122.46507 0 0 0 221.6538,99.18887 122.46507,122.46507 0 0 0 99.189,-23.275934 Z m 43.30126,62.642398 c 17.04,0 30.86192,13.823453 30.86192,30.868453 0,12.082 -6.95842,25.494329 -17.07142,32.301333 24.181,6.129 42.10021,27.13079 42.09721,42.68779 0,9.19707 -27.93653,13.77698 -55.87572,13.77198 l -0.012,0.012 -0.012,-0.012 c -16.18652,-0.004 -32.37319,-1.53701 -43.121475,-4.62771 v -5.94835 l -5.758755,-5.75658 h 9.97676 c 7.982,0 14.47261,-6.49552 14.47261,-14.47152 v -21.80155 c 3.387,-1.577 6.92243,-2.90208 10.65343,-3.84208 -4.203,-2.83399 -7.81143,-6.835763 -10.65343,-11.374763 V 65.747774 c 0,-3.443 -1.26265,-6.563562 -3.26565,-9.050562 5.01,-10.254 15.51749,-17.330748 27.70849,-17.330748 z m -0.012,119.629556 h 0.024 l 15.65052,-15.64398 -13.18902,-31.86221 h 0.13075 l 5.11151,-5.86663 c -2.469,0.887 -5.04575,1.41218 -7.71575,1.41218 -2.681,0 -5.25854,-0.52607 -7.73754,-1.42307 l 5.11586,5.87752 h 0.14493 l -13.18466,31.86221 z M 9.8046214,55.936642 H 103.57481 c 5.393,0 9.80895,4.413683 9.80895,9.805683 v 62.440815 c 0,5.391 -4.40951,9.80459 -9.80351,9.80459 H 60.694146 v 8.35646 h 30.006547 l 4.003343,4.00117 v 3.99898 H 18.686289 v -3.99898 l 4.003343,-4.00117 h 29.998919 v -8.35646 H 9.8046214 c -5.394,0 -9.804593853864,-4.41359 -9.804593853864,-9.80459 V 65.742325 c 0,-5.392 4.410593853864,-9.805683 9.804593853864,-9.805683 z"
       transform="matrix(1.7924474,0,0,1.7924474,78.208935,78.209168)" /></g><style
     type="text/css"
     id="style1">
	.st0{fill:#000000;}
</style></svg>
