<?xml version="1.0" encoding="UTF-8" standalone="no"?>
<!-- Uploaded to: SVG Repo, www.svgrepo.com, Generator: SVG Repo Mixer Tools -->

<svg
   width="800"
   height="800"
   viewBox="0 0 16 16"
   fill="none"
   version="1.1"
   id="svg1"
   xmlns="http://www.w3.org/2000/svg"
   xmlns:svg="http://www.w3.org/2000/svg">
  <defs
     id="defs1" />
  <path
     d="m 9.0489694,0.06932343 c 1.3735646,0.17742179 2.6595706,0.7059897 3.8112076,1.56599507 0.405654,0.3030945 1.203383,1.1002616 1.506708,1.5056198 0.691728,0.9253044 1.203418,2.013245 1.435213,3.0543665 0.263869,1.1889707 0.263869,2.4210677 0,3.6100334 -0.510463,2.2929348 -2.126932,4.3283478 -4.269872,5.3756448 -0.774318,0.378259 -1.5733127,0.625907 -2.4499671,0.758971 -0.52279,0.08006 -1.6472831,0.08006 -2.1700739,0 C 4.5103055,15.575257 2.483258,14.265514 1.2071054,12.252299 0.94324356,11.837077 0.59800394,11.112606 0.42538398,10.611149 0.12823181,9.7523652 0,8.9625906 0,8.0003244 0,6.7201773 0.24783242,5.6285395 0.79651633,4.5011722 1.2157349,3.6411707 1.6423526,3.0472975 2.3414614,2.3487 3.040573,1.6501026 3.6348785,1.2237974 4.4955093,0.80488483 5.9171551,0.11367881 7.4633349,-0.13520447 9.0489694,0.06932343"
     id="path2"
     style="fill:#f23b3b;fill-opacity:1;stroke-width:1.23258" />
  <path
     id="path4"
     style="fill:#ea9999;fill-opacity:1;stroke-width:1.23258"
     d="m 7.9146856,3.2409203 c -0.1306207,6.935e-4 -0.2432102,0.00767 -0.2774243,0.018717 -0.2761916,0.08994 -0.4327928,0.2476511 -0.5092379,0.5113194 -0.044398,0.1503166 -0.049356,0.4940899 -0.041941,2.6009733 0.0098,2.4272304 0.00982,2.4284614 0.081401,2.5627604 0.090012,0.1687948 0.2626489,0.3215378 0.4266359,0.3794452 0.1627568,0.056635 0.6485189,0.056635 0.8112749,0 C 8.5693733,9.2562448 8.7420127,9.1034863 8.8320209,8.9346908 8.9035355,8.800392 8.9035535,8.7991604 8.9134157,6.3719301 8.923277,3.7204611 8.923277,3.7179972 8.7346295,3.4949877 8.5817371,3.3126416 8.4177308,3.2522673 8.0490635,3.2424114 c -0.045317,-0.0012 -0.090832,-0.00167 -0.1343773,-0.00148 z m 0.013296,7.6850927 c -0.077674,6.1e-5 -0.1466098,0.006 -0.1920776,0.02191 -0.2330369,0.07643 -0.4636453,0.27475 -0.5758485,0.495298 -0.086311,0.172494 -0.1011177,0.484222 -0.03083,0.693671 0.1158994,0.351138 0.4969182,0.622217 0.8705159,0.622217 0.3735986,0 0.7546144,-0.271079 0.8705166,-0.622217 C 8.940531,11.927441 8.925742,11.615713 8.839427,11.443219 8.759285,11.2855 8.5669258,11.090836 8.4103356,11.009512 8.3120066,10.958732 8.0988622,10.925922 7.9279777,10.926052 Z" />
</svg>
