<?xml version="1.0" encoding="UTF-8" standalone="no"?>
<!-- Created with Inkscape (http://www.inkscape.org/) -->

<svg
   width="512"
   height="512"
   viewBox="0 0 512 512"
   version="1.1"
   id="svg1"
   xml:space="preserve"
   xmlns="http://www.w3.org/2000/svg"
   xmlns:svg="http://www.w3.org/2000/svg"><defs
     id="defs1" /><g
     id="layer1"><path
       id="path1"
       style="display:inline"
       class="st0"
       d="M 255.99984,-108.75056 A 364.75133,364.75133 0 0 0 -108.75071,255.99999 364.75133,364.75133 0 0 0 255.99984,620.75054 364.75133,364.75133 0 0 0 620.75039,255.99999 364.75133,364.75133 0 0 0 255.99984,-108.75056 Z m 0.006,108.75012277966 c 74.144,0 134.22976,60.10974522034 134.22976,134.24274722034 v 32.15542 c 0,74.134 -60.08576,134.24275 -134.22976,134.24275 -74.154,0 -134.25248,-60.1065 -134.25248,-134.2395 v -32.15867 c 0,-74.134002 60.09748,-134.24274722034 134.25248,-134.24274722034 z M 154.23707,310.7856 c 28.869,20.197 63.94126,32.08727 101.76926,32.08727 37.807,0 72.87531,-11.89127 101.74331,-32.08727 50.475,21.667 81.47944,59.78183 100.40944,93.43183 25.11,44.632 5.42361,107.78299 -38.00039,107.78299 H 256.00633 91.840999 c -43.425,0 -63.109393,-63.15099 -38.000393,-107.78299 18.919,-33.649 49.922464,-71.76483 100.396464,-93.43183 z"
       transform="matrix(0.60181326,0,0,0.60181326,101.9359,101.93581)" /><path
       id="path1-6"
       style="display:none;fill:#000000;fill-opacity:1"
       d="m 142.49026,39.366464 c -12.191,0 -22.69849,7.076748 -27.70849,17.330748 2.003,2.487 3.26565,5.607562 3.26565,9.050562 v 25.425693 c 2.842,4.539 6.45043,8.540768 10.65343,11.374763 -3.731,0.94 -7.26643,2.26508 -10.65343,3.84208 v 21.80155 c 0,7.976 -6.49061,14.47152 -14.47261,14.47152 h -9.97676 l 5.758755,5.75658 v 5.94835 c 10.748285,3.0907 26.934955,4.6235 43.121475,4.62771 l -15.64943,-15.64398 13.18466,-31.86221 h -0.14493 l -5.11586,-5.87752 c 2.479,0.897 5.05654,1.42307 7.73754,1.42307 2.67,0 5.24675,-0.52518 7.71575,-1.41218 l -5.11151,5.86663 h -0.13075 l 13.18902,31.86221 -15.65052,15.64398 c 27.93919,0.005 55.87572,-4.57491 55.87572,-13.77198 0.003,-15.557 -17.91621,-36.55879 -42.09721,-42.68779 10.113,-6.807002 17.07142,-20.219333 17.07142,-32.301333 0,-17.045 -13.82192,-30.868453 -30.86192,-30.868453 z m 0.012,119.629556 c -0.008,0 -0.016,0 -0.024,0 l 0.012,0.012 z M 9.8046214,55.936642 c -5.394,0 -9.804593853864,4.413683 -9.804593853864,9.805683 v 62.440815 c 0,5.391 4.410593853864,9.80459 9.804593853864,9.80459 H 52.688551 v 8.35646 H 22.689632 l -4.003343,4.00117 v 3.99898 h 76.017747 v -3.99898 l -4.003343,-4.00117 H 60.694146 v -8.35646 h 42.886104 c 5.394,0 9.80351,-4.41359 9.80351,-9.80459 V 65.742325 c 0,-5.392 -4.41595,-9.805683 -9.80895,-9.805683 z"
       transform="matrix(1.7924474,0,0,1.7924474,78.208935,78.209168)" /></g><style
     type="text/css"
     id="style1">
	.st0{fill:#000000;}
</style></svg>
